<?xml version="1.0" encoding="utf-8"?>
<!-- Generator: Adobe Illustrator 17.1.0, SVG Export Plug-In . SVG Version: 6.00 Build 0)  -->
<!DOCTYPE svg PUBLIC "-//W3C//DTD SVG 1.1//EN" "http://www.w3.org/Graphics/SVG/1.1/DTD/svg11.dtd">
<svg version="1.1" xmlns="http://www.w3.org/2000/svg" xmlns:xlink="http://www.w3.org/1999/xlink" x="0px" y="0px"
	 viewBox="0 0 119 34" enable-background="new 0 0 119 34" xml:space="preserve">
<g id="Layer_2">
</g>
<g id="Layer_1">
	<title>fabric-logo</title>
	<desc>Created with Sketch.</desc>
	<g id="Page-1">
		<g id="Full-Homepage-wIllustrations" transform="translate(-167.000000, -91.000000)">
			<g id="Full" transform="translate(83.000000, 7.000000)">
				<g id="fabric-logo" transform="translate(84.000000, 84.000000)">
					<g id="Group-3">
						<path id="Shape" fill="#FFFFFF" d="M8,25.9l-0.3,0.2c-0.7,0.4-0.7,1.4,0,1.9l7.7,5.1c1,0.7,2.4,0.7,3.4,0l7.6-5
							c0.7-0.4,0.7-1.4,0-1.9L26,26l-2.6,1.8l-5.2,3.5c-0.7,0.5-1.6,0.5-2.3,0l-5.2-3.5L8,25.9L8,25.9z"/>
						<path id="Shape_1_" fill="#FFFFFF" d="M4.3,17.7l-0.4,0.3c-0.9,0.6-0.9,2,0,2.6l10.8,7.3c1.4,1,3.3,1,4.8,0l10.7-7.1
							c0.9-0.6,0.9-2,0-2.6l-0.5-0.3L26,20.3l-7.3,4.9c-1,0.7-2.3,0.6-3.3,0L4.3,17.7L4.3,17.7z"/>
						<path id="Shape_2_" fill="#FFFFFF" d="M32.8,10.1l-13-8.8c-1.7-1.2-4-1.2-5.8,0L1.2,9.9c-1.1,0.8-1.1,2.4,0,3.2l13,8.7
							c1.7,1.2,4,1.2,5.7,0l12.9-8.6C33.9,12.5,33.9,10.8,32.8,10.1L32.8,10.1z M27.8,12.7L19,18.6c-1.2,0.8-2.7,0.8-3.9,0l-8.9-6
							c-0.8-0.5-0.8-1.6,0-2.2L15,4.5c1.2-0.8,2.7-0.8,3.9,0l8.9,6C28.6,11.1,28.6,12.2,27.8,12.7L27.8,12.7z"/>
					</g>
				</g>
			</g>
			<path fill="#FFFFFF" d="M218.9,102.2h-5.4v-1.5c0-2.6,1-3.9,3.1-3.9c0.8,0,1.4,0.1,2.3,0.4v-1.4c-0.7-0.2-1.4-0.4-2.3-0.4
				c-1.4,0-2.5,0.4-3.2,1.2c-0.9,0.9-1.4,2.2-1.4,4v1.5h-2.2v1.3h2.2v13.9h1.5v-13.9h5.4V102.2z M225.1,102.3c-1.6,0-1,0-3.8,0v1.4
				c0.7,0,2.8-0.1,3.6-0.1c3.2,0,5.1,1.5,5.1,4.5v0.7c-1.5-0.4-3-0.7-5.1-0.7c-4,0-6.8,1.8-6.8,5v0.1c0,3.2,3.1,4.8,6,4.8
				c2.9,0,4.9-1.4,5.9-2.9v2.5h1.5V108c0-1.9-0.5-3.3-1.6-4.3C228.7,102.6,227.2,102.4,225.1,102.3L225.1,102.3z M230,111.8
				c0,2.8-2.7,4.7-5.9,4.7c-2.4,0-4.5-1.3-4.5-3.5v-0.1c0-2.1,1.8-3.6,5.1-3.6c2.2,0,3.9,0.4,5.2,0.7V111.8z M242.3,101.9
				c-3.1,0-5,1.8-6.4,3.8v-10h-1.5v21.9h1.5v-3.3c1.3,1.9,3.3,3.7,6.4,3.7c3.7,0,7.5-3,7.5-8v-0.1
				C249.8,104.8,246,101.9,242.3,101.9L242.3,101.9z M248.2,109.9c0,4.1-2.7,6.5-6.1,6.5c-3.2,0-6.3-2.6-6.3-6.6v-0.1
				c0-3.9,3.1-6.6,6.3-6.6C245.4,103.3,248.2,105.8,248.2,109.9L248.2,109.9L248.2,109.9z M253.7,106.6v-4.3h-1.5v15.3h1.5v-6.3
				c0-5,3.1-7.6,6.7-7.6h0.2V102C257.5,101.9,254.9,103.8,253.7,106.6L253.7,106.6z M262.2,117.5h1.5v-15.6h-1.5V117.5z
				 M279.4,113.9c-1.3,1.4-3,2.5-5.2,2.5c-3.5,0-6.4-2.9-6.4-6.6v-0.1c0-3.7,2.7-6.6,6.2-6.6c2.3,0,3.8,1.2,5.2,2.5l1.1-1.1
				c-1.5-1.5-3.3-2.8-6.2-2.8c-4.4,0-7.9,3.7-7.9,8v0.1c0,4.3,3.4,7.9,7.9,7.9c2.8,0,4.7-1.3,6.3-3L279.4,113.9z"/>
		</g>
	</g>
</g>
</svg>
